<?xml version="1.0" standalone="no"?>
<!DOCTYPE svg PUBLIC "-//W3C//DTD SVG 20010904//EN"
 "http://www.w3.org/TR/2001/REC-SVG-20010904/DTD/svg10.dtd">
<svg version="1.0" xmlns="http://www.w3.org/2000/svg"
 width="225.000000pt" height="225.000000pt" viewBox="0 0 225.000000 225.000000"
 preserveAspectRatio="xMidYMid meet">

<g transform="translate(0.000000,225.000000) scale(0.100000,-0.100000)"
fill="#000000" stroke="none">
<path d="M835 1580 c-192 -15 -335 -50 -365 -88 -29 -36 -26 -87 6 -119 29
-29 58 -29 189 1 117 27 305 37 444 26 235 -21 384 -57 540 -133 99 -48 132
-50 169 -14 33 34 35 86 4 120 -43 45 -201 113 -366 156 -166 44 -435 66 -621
51z"/>
<path d="M809 1239 c-109 -11 -254 -47 -272 -67 -25 -29 -30 -61 -12 -88 26
-40 54 -45 136 -23 103 27 273 39 404 29 176 -13 318 -52 468 -126 48 -24 95
-44 105 -44 52 0 87 70 58 115 -19 28 -135 90 -245 129 -194 70 -432 98 -642
75z"/>
<path d="M860 919 c-102 -7 -205 -24 -258 -40 -38 -13 -58 -49 -42 -79 20 -38
41 -40 156 -19 71 13 155 21 239 21 199 2 324 -25 483 -103 92 -46 127 -47
138 -4 11 44 -3 69 -53 97 -180 100 -419 146 -663 127z"/>
</g>
</svg>
